# xmcd
#
# Track frame offsets:
#	150
#	22200
#	40729
#	56731
#	74156
#	94083
#	113332
#	129118
#	151545
#	166263
#	185023
#
# Disc length: 2640 seconds
#
# Revision: 0
# Processed by: cddbd v1.4PL0 Copyright (c) Steve Scherf et al.
# Submitted via: EasyCDDAExtractor 4.5.0.2
#
DISCID=8a0a4e0b
DTITLE=Eric Clapton - Boulevar 461
DYEAR=1900
DGENRE=
TTITLE0=001_AlbumWrap - Eric Clapton - AlbumWrap Album
TTITLE1=001_AlbumWrap - Eric Clapton - AlbumWrap Album
TTITLE2=001_AlbumWrap - Eric Clapton - AlbumWrap Album
TTITLE3=001_AlbumWrap - Eric Clapton - AlbumWrap Album
TTITLE4=001_AlbumWrap - Eric Clapton - AlbumWrap Album
TTITLE5=001_AlbumWrap - Eric Clapton - AlbumWrap Album
TTITLE6=001_AlbumWrap - Eric Clapton - AlbumWrap Album
TTITLE7=001_AlbumWrap - Eric Clapton - AlbumWrap Album
TTITLE8=001_AlbumWrap - Eric Clapton - AlbumWrap Album
TTITLE9=001_AlbumWrap - Eric Clapton - AlbumWrap Album
TTITLE10=001_AlbumWrap - Eric Clapton - AlbumWrap Album
EXTD=
EXTT0=
EXTT1=
EXTT2=
EXTT3=
EXTT4=
EXTT5=
EXTT6=
EXTT7=
EXTT8=
EXTT9=
EXTT10=
PLAYORDER=
